<?xml version="1.0" encoding="UTF-8"?>
<svg xmlns="http://www.w3.org/2000/svg" width="1200" height="900" viewBox="0 0 1200 900">
<rect width="1200" height="900" fill="#ffffff"/>
<text x="600" y="30" text-anchor="middle" font-family="Arial" font-size="18" font-weight="bold" fill="#1a1a2e">Diagrama de Clases UML — Sistema de Gestión de Inventario y Bodega</text>
<rect x="503" y="58" width="160" height="90" rx="4" fill="#d0d0d0"/>
<rect x="500" y="55" width="160" height="90" rx="4" fill="#f8f9fa" stroke="#333" stroke-width="1.5"/>
<rect x="500" y="55" width="160" height="28" rx="4" fill="#2d6a4f"/>
<rect x="500" y="79" width="160" height="4" fill="#2d6a4f"/>
<text x="580.0" y="73" text-anchor="middle" font-family="Arial" font-size="13" font-weight="bold" fill="#ffffff">Nodo</text>
<text x="508" y="101" font-family="Consolas" font-size="10" fill="#333">- dato: object</text>
<text x="508" y="117" font-family="Consolas" font-size="10" fill="#333">- siguiente: Nodo</text>
<rect x="103" y="178" width="190" height="140" rx="4" fill="#d0d0d0"/>
<rect x="100" y="175" width="190" height="140" rx="4" fill="#f8f9fa" stroke="#333" stroke-width="1.5"/>
<rect x="100" y="175" width="190" height="28" rx="4" fill="#1b4332"/>
<rect x="100" y="199" width="190" height="4" fill="#1b4332"/>
<text x="195.0" y="193" text-anchor="middle" font-family="Arial" font-size="13" font-weight="bold" fill="#ffffff">ListaCircular</text>
<text x="108" y="221" font-family="Consolas" font-size="10" fill="#333">- ultimo: Nodo</text>
<line x1="104" y1="225" x2="286" y2="225" stroke="#999" stroke-width="0.8" stroke-dasharray="3,3"/>
<text x="108" y="245" font-family="Consolas" font-size="10" fill="#555">+ insertar(dato)</text>
<text x="108" y="261" font-family="Consolas" font-size="10" fill="#555">+ eliminar(codigo)</text>
<text x="108" y="277" font-family="Consolas" font-size="10" fill="#555">+ buscar(codigo)</text>
<text x="108" y="293" font-family="Consolas" font-size="10" fill="#555">+ recorrer()</text>
<rect x="483" y="178" width="170" height="120" rx="4" fill="#d0d0d0"/>
<rect x="480" y="175" width="170" height="120" rx="4" fill="#f8f9fa" stroke="#333" stroke-width="1.5"/>
<rect x="480" y="175" width="170" height="28" rx="4" fill="#1b4332"/>
<rect x="480" y="199" width="170" height="4" fill="#1b4332"/>
<text x="565.0" y="193" text-anchor="middle" font-family="Arial" font-size="13" font-weight="bold" fill="#ffffff">Cola</text>
<text x="488" y="221" font-family="Consolas" font-size="10" fill="#333">- frente: Nodo</text>
<text x="488" y="237" font-family="Consolas" font-size="10" fill="#333">- final: Nodo</text>
<line x1="484" y1="241" x2="646" y2="241" stroke="#999" stroke-width="0.8" stroke-dasharray="3,3"/>
<text x="488" y="261" font-family="Consolas" font-size="10" fill="#555">+ enqueue(dato)</text>
<text x="488" y="277" font-family="Consolas" font-size="10" fill="#555">+ dequeue()</text>
<text x="488" y="293" font-family="Consolas" font-size="10" fill="#555">+ peek()</text>
<text x="488" y="309" font-family="Consolas" font-size="10" fill="#555">+ is_empty()</text>
<rect x="843" y="178" width="170" height="120" rx="4" fill="#d0d0d0"/>
<rect x="840" y="175" width="170" height="120" rx="4" fill="#f8f9fa" stroke="#333" stroke-width="1.5"/>
<rect x="840" y="175" width="170" height="28" rx="4" fill="#1b4332"/>
<rect x="840" y="199" width="170" height="4" fill="#1b4332"/>
<text x="925.0" y="193" text-anchor="middle" font-family="Arial" font-size="13" font-weight="bold" fill="#ffffff">Pila</text>
<text x="848" y="221" font-family="Consolas" font-size="10" fill="#333">- tope: Nodo</text>
<line x1="844" y1="225" x2="1006" y2="225" stroke="#999" stroke-width="0.8" stroke-dasharray="3,3"/>
<text x="848" y="245" font-family="Consolas" font-size="10" fill="#555">+ push(dato)</text>
<text x="848" y="261" font-family="Consolas" font-size="10" fill="#555">+ pop()</text>
<text x="848" y="277" font-family="Consolas" font-size="10" fill="#555">+ peek()</text>
<text x="848" y="293" font-family="Consolas" font-size="10" fill="#555">+ is_empty()</text>
<rect x="53" y="373" width="190" height="130" rx="4" fill="#d0d0d0"/>
<rect x="50" y="370" width="190" height="130" rx="4" fill="#f8f9fa" stroke="#333" stroke-width="1.5"/>
<rect x="50" y="370" width="190" height="28" rx="4" fill="#0f3460"/>
<rect x="50" y="394" width="190" height="4" fill="#0f3460"/>
<text x="145.0" y="388" text-anchor="middle" font-family="Arial" font-size="13" font-weight="bold" fill="#ffffff">Producto</text>
<text x="58" y="416" font-family="Consolas" font-size="10" fill="#333">- codigo: str</text>
<text x="58" y="432" font-family="Consolas" font-size="10" fill="#333">- nombre: str</text>
<text x="58" y="448" font-family="Consolas" font-size="10" fill="#333">- descripcion: str</text>
<text x="58" y="464" font-family="Consolas" font-size="10" fill="#333">- categoria: str</text>
<text x="58" y="480" font-family="Consolas" font-size="10" fill="#333">- precio: float</text>
<text x="58" y="496" font-family="Consolas" font-size="10" fill="#333">- stock_actual: int</text>
<text x="58" y="512" font-family="Consolas" font-size="10" fill="#333">- stock_minimo: int</text>
<text x="58" y="528" font-family="Consolas" font-size="10" fill="#333">- stock_maximo: int</text>
<line x1="54" y1="532" x2="236" y2="532" stroke="#999" stroke-width="0.8" stroke-dasharray="3,3"/>
<text x="58" y="552" font-family="Consolas" font-size="10" fill="#555">+ actualizar_stock(cant)</text>
<text x="58" y="568" font-family="Consolas" font-size="10" fill="#555">+ mostrar_info()</text>
<rect x="293" y="373" width="185" height="100" rx="4" fill="#d0d0d0"/>
<rect x="290" y="370" width="185" height="100" rx="4" fill="#f8f9fa" stroke="#333" stroke-width="1.5"/>
<rect x="290" y="370" width="185" height="28" rx="4" fill="#0f3460"/>
<rect x="290" y="394" width="185" height="4" fill="#0f3460"/>
<text x="382.5" y="388" text-anchor="middle" font-family="Arial" font-size="13" font-weight="bold" fill="#ffffff">Proveedor</text>
<text x="298" y="416" font-family="Consolas" font-size="10" fill="#333">- ruc: str</text>
<text x="298" y="432" font-family="Consolas" font-size="10" fill="#333">- nombre: str</text>
<text x="298" y="448" font-family="Consolas" font-size="10" fill="#333">- telefono: str</text>
<text x="298" y="464" font-family="Consolas" font-size="10" fill="#333">- email: str</text>
<text x="298" y="480" font-family="Consolas" font-size="10" fill="#333">- direccion: str</text>
<line x1="294" y1="484" x2="471" y2="484" stroke="#999" stroke-width="0.8" stroke-dasharray="3,3"/>
<text x="298" y="504" font-family="Consolas" font-size="10" fill="#555">+ mostrar_info()</text>
<rect x="533" y="373" width="180" height="115" rx="4" fill="#d0d0d0"/>
<rect x="530" y="370" width="180" height="115" rx="4" fill="#f8f9fa" stroke="#333" stroke-width="1.5"/>
<rect x="530" y="370" width="180" height="28" rx="4" fill="#0f3460"/>
<rect x="530" y="394" width="180" height="4" fill="#0f3460"/>
<text x="620.0" y="388" text-anchor="middle" font-family="Arial" font-size="13" font-weight="bold" fill="#ffffff">Movimiento</text>
<text x="538" y="416" font-family="Consolas" font-size="10" fill="#333">- tipo: str</text>
<text x="538" y="432" font-family="Consolas" font-size="10" fill="#333">- producto: Producto</text>
<text x="538" y="448" font-family="Consolas" font-size="10" fill="#333">- cantidad: int</text>
<text x="538" y="464" font-family="Consolas" font-size="10" fill="#333">- fecha: str</text>
<line x1="534" y1="468" x2="706" y2="468" stroke="#999" stroke-width="0.8" stroke-dasharray="3,3"/>
<text x="538" y="488" font-family="Consolas" font-size="10" fill="#555">+ aplicar()</text>
<text x="538" y="504" font-family="Consolas" font-size="10" fill="#555">+ revertir()</text>
<rect x="763" y="373" width="185" height="115" rx="4" fill="#d0d0d0"/>
<rect x="760" y="370" width="185" height="115" rx="4" fill="#f8f9fa" stroke="#333" stroke-width="1.5"/>
<rect x="760" y="370" width="185" height="28" rx="4" fill="#0f3460"/>
<rect x="760" y="394" width="185" height="4" fill="#0f3460"/>
<text x="852.5" y="388" text-anchor="middle" font-family="Arial" font-size="13" font-weight="bold" fill="#ffffff">Pedido</text>
<text x="768" y="416" font-family="Consolas" font-size="10" fill="#333">- id_pedido: int</text>
<text x="768" y="432" font-family="Consolas" font-size="10" fill="#333">- cliente: str</text>
<text x="768" y="448" font-family="Consolas" font-size="10" fill="#333">- estado: str</text>
<text x="768" y="464" font-family="Consolas" font-size="10" fill="#333">- fecha: str</text>
<line x1="764" y1="468" x2="941" y2="468" stroke="#999" stroke-width="0.8" stroke-dasharray="3,3"/>
<text x="768" y="488" font-family="Consolas" font-size="10" fill="#555">+ agregar_producto(prod, cant)</text>
<text x="768" y="504" font-family="Consolas" font-size="10" fill="#555">+ calcular_total()</text>
<rect x="293" y="573" width="420" height="150" rx="4" fill="#d0d0d0"/>
<rect x="290" y="570" width="420" height="150" rx="4" fill="#f8f9fa" stroke="#333" stroke-width="1.5"/>
<rect x="290" y="570" width="420" height="28" rx="4" fill="#e63946"/>
<rect x="290" y="594" width="420" height="4" fill="#e63946"/>
<text x="500.0" y="588" text-anchor="middle" font-family="Arial" font-size="13" font-weight="bold" fill="#ffffff">Inventario</text>
<text x="298" y="616" font-family="Consolas" font-size="10" fill="#333">- lista_circular: ListaCircular</text>
<text x="298" y="632" font-family="Consolas" font-size="10" fill="#333">- cola_pedidos: Cola</text>
<text x="298" y="648" font-family="Consolas" font-size="10" fill="#333">- pila_movimientos: Pila</text>
<text x="298" y="664" font-family="Consolas" font-size="10" fill="#333">- proveedores: list[Proveedor]</text>
<line x1="294" y1="668" x2="706" y2="668" stroke="#999" stroke-width="0.8" stroke-dasharray="3,3"/>
<text x="298" y="688" font-family="Consolas" font-size="10" fill="#555">+ registrar_producto(p)</text>
<text x="298" y="704" font-family="Consolas" font-size="10" fill="#555">+ registrar_proveedor(p)</text>
<text x="298" y="720" font-family="Consolas" font-size="10" fill="#555">+ entrada_mercancia(cod, cant)</text>
<text x="298" y="736" font-family="Consolas" font-size="10" fill="#555">+ salida_mercancia(cod, cant)</text>
<text x="298" y="752" font-family="Consolas" font-size="10" fill="#555">+ encolar_pedido(pedido)</text>
<text x="298" y="768" font-family="Consolas" font-size="10" fill="#555">+ procesar_pedido()</text>
<text x="298" y="784" font-family="Consolas" font-size="10" fill="#555">+ deshacer_movimiento()</text>
<text x="298" y="800" font-family="Consolas" font-size="10" fill="#555">+ reporte_bajo_stock()</text>
<line x1="500" y1="570" x2="195" y2="315" stroke="#555" stroke-width="1.2" stroke-dasharray="5,3"/>
<polygon points="195,315 197.67887443488854,321.1500920124906 204.20627270581414,322.6970476720741 201.52739827092557,316.5469556595835" fill="#555" stroke="#555" stroke-width="1"/>
<text x="317.5" y="434.5" font-family="Arial" font-size="10" fill="#555">usa</text>
<line x1="500" y1="570" x2="565" y2="295" stroke="#555" stroke-width="1.2" stroke-dasharray="5,3"/>
<polygon points="565,295 560.700293438097,300.14903131487154 562.2396945528524,306.67821535331694 566.5394011147554,301.52918403844535" fill="#555" stroke="#555" stroke-width="1"/>
<text x="502.5" y="424.5" font-family="Arial" font-size="10" fill="#555">usa</text>
<line x1="500" y1="570" x2="925" y2="295" stroke="#555" stroke-width="1.2" stroke-dasharray="5,3"/>
<polygon points="925,295 918.3328252226153,295.74079719748715 914.9251581141742,301.5190153378873 921.5923328915588,300.7782181404001" fill="#555" stroke="#555" stroke-width="1"/>
<text x="682.5" y="424.5" font-family="Arial" font-size="10" fill="#555">usa</text>
<line x1="580" y1="145" x2="150" y2="175" stroke="#555" stroke-width="1.5"/>
<polygon points="580,145 587,152 580,159 573,152" fill="#333" stroke="#333" stroke-width="1"/>
<line x1="580" y1="145" x2="550" y2="175" stroke="#555" stroke-width="1.5"/>
<polygon points="580,145 587,152 580,159 573,152" fill="#333" stroke="#333" stroke-width="1"/>
<line x1="580" y1="145" x2="910" y2="175" stroke="#555" stroke-width="1.5"/>
<polygon points="580,145 587,152 580,159 573,152" fill="#333" stroke="#333" stroke-width="1"/>
<line x1="290" y1="570" x2="145" y2="500" stroke="#555" stroke-width="1.2"/>
<polygon points="145,500 150.81321608025686,506.3597577630161 153.5956101015764,500.59622729028274" fill="#555" stroke="#555" stroke-width="1"/>
<text x="222.5" y="530.0" font-family="Arial" font-size="9" fill="#666">gestiona</text>
<line x1="500" y1="570" x2="382" y2="485" stroke="#555" stroke-width="1.2"/>
<polygon points="382,485 386.6208764251081,492.27237932618203 390.3615859121004,487.07939439129865" fill="#555" stroke="#555" stroke-width="1"/>
<text x="446.0" y="522.5" font-family="Arial" font-size="9" fill="#666">registra</text>
<line x1="500" y1="570" x2="620" y2="485" stroke="#555" stroke-width="1.2"/>
<polygon points="620,485 611.6221486606897,487.0128603867174 615.3214596416839,492.23541706576805" fill="#555" stroke="#555" stroke-width="1"/>
<text x="565.0" y="522.5" font-family="Arial" font-size="9" fill="#666">genera</text>
<line x1="710" y1="570" x2="852" y2="485" stroke="#555" stroke-width="1.2"/>
<polygon points="852,485 843.4922529950422,486.363173099658 846.7793370651395,491.85453707558537" fill="#555" stroke="#555" stroke-width="1"/>
<text x="786.0" y="522.5" font-family="Arial" font-size="9" fill="#666">procesa</text>
</svg>